<?xml version="1.0" encoding="UTF-8"?>
<svg id="header-logo" aria-hidden="true" xmlns="http://www.w3.org/2000/svg" width="176.39mm" height="11.71mm" viewBox="0 0 500 33.2"><defs><style>.b{fill:#000;stroke-width:0px;}</style></defs><path class="b" d="m4,12.3c0-1.8,1.4-4,5-4,2.4,0,4.2.8,5.1,1.3l1-2.8c-1.2-.7-3.2-1.4-5.9-1.4C4,5.4.6,8.5.6,12.7c0,3.8,2.7,6,7.1,7.6,3.6,1.4,5,2.8,5,5.3,0,2.7-2.1,4.6-5.6,4.6-2.4,0-4.6-.8-6.2-1.7l-.9,2.8c1.4,1,4.2,1.7,6.8,1.7,6.3,0,9.4-3.6,9.4-7.7s-2.3-6.1-6.8-7.9c-3.7-1.4-5.4-2.6-5.4-5.1m25.1-3.5h8.2v-2.9h-19.8v2.9h8.1v23.8h3.5V8.8Zm23.2,12.7h-8.1l2.6-7.7c.5-1.6,1-3.3,1.3-4.8h.1c.4,1.5.8,3.1,1.4,4.9l2.7,7.6Zm3.5,11.1h3.7l-9.1-26.7h-4.2l-9.1,26.7h3.6l2.8-8.4h9.5l2.8,8.4Zm27.2-13.9c0,7.2-4,11.4-11.3,11.4-1.3,0-2.6,0-3.5-.2V8.8c.9-.2,2.3-.4,4-.4,7.3,0,10.9,4,10.8,10.3m-.2,10.3c2.5-2.5,3.8-6,3.8-10.4s-1.4-7.4-3.8-9.6c-2.3-2.2-5.8-3.3-10.7-3.3-2.7,0-5.2.2-7.3.6v26.3c1.7.2,3.8.3,6.3.3,5.1-.1,9.2-1.4,11.7-3.9m16.8-20.2h8.2v-2.9h-19.8v2.9h8.1v23.8h3.5V8.8Zm45.4,23.8h8.1v-15.7c0-8-3.9-11.6-9-11.6-2,0-3.6.4-5.1,1.3-1.3.8-2.5,1.9-3.4,3.2h-.1c-1.1-2.8-3.9-4.5-7.3-4.5-4.6,0-6.9,2.5-8.1,4.2h-.2l-.4-3.6h-7c.1,2.3.2,5.2.2,8.5v18.1h8.1v-15.4c0-.7.1-1.4.3-2.1.5-1.4,1.7-3,3.9-3,2.6,0,3.8,2.3,3.8,5.7v14.9h8.1v-15.6c0-.7.1-1.5.3-2.1.5-1.6,1.9-2.9,3.8-2.9,2.7,0,3.9,2.2,3.9,6.1l.1,14.5h0Zm32.8,0h7.2c-.1-2.2-.2-5.1-.2-8.6V6h-8.3v15.9c0,.7-.1,1.3-.3,1.8-.5,1.3-1.9,2.9-4.1,2.9-2.9,0-4.1-2.3-4.1-6.2V6h-8.3v15.6c0,8.2,4,11.6,9.4,11.6,4.8,0,7.3-2.7,8.3-4.4h.2l.2,3.8Zm21.2-19.3c0-1.4,1.1-2.2,3.2-2.2,2.3,0,4.6.9,5.8,1.5l1.5-5.7c-1.6-.8-4.4-1.5-7.5-1.5-6.6,0-10.8,3.8-10.8,8.7-.1,3.2,2.1,6.2,7.6,8,3.1,1,3.9,1.7,3.9,3.1s-1,2.2-3.5,2.2-5.6-1.1-7.1-2l-1.5,5.9c2,1.1,5.1,1.9,8.6,1.9,7.6,0,11.6-3.6,11.6-8.6-.1-3.9-2.2-6.5-7.2-8.2-3.5-1.2-4.6-1.9-4.6-3.1m32.7,3h-9.8c.2-2.2,1.6-5.4,5.1-5.4,3.9,0,4.7,3.3,4.7,5.4m7.4,5.6c.1-.6.3-1.9.3-3.3,0-6.6-3.3-13.3-11.9-13.3-9.3,0-13.5,7.5-13.5,14.2,0,8.3,5.2,13.6,14.2,13.6,3.6,0,6.9-.5,9.6-1.6l-1.1-5.6c-2.2.7-4.5,1.1-7.4,1.1-3.9,0-7.2-1.6-7.5-5.1,0,0,17.3,0,17.3,0Zm23.4,10.7h7.2c-.1-2.2-.2-5.1-.2-8.6V6h-8.3v15.9c0,.7-.1,1.3-.3,1.8-.5,1.3-1.9,2.9-4.1,2.9-2.9,0-4.1-2.3-4.1-6.2V6h-8.3v15.6c0,8.2,4,11.6,9.4,11.6,4.8,0,7.3-2.7,8.3-4.4h.2l.2,3.8Zm45.8,0h8.1v-15.7c0-8-3.9-11.6-9-11.6-2,0-3.6.4-5.1,1.3-1.3.8-2.5,1.9-3.4,3.2h-.1c-1.1-2.8-3.9-4.5-7.3-4.5-4.6,0-6.9,2.5-8.1,4.2h-.2l-.4-3.6h-7c.1,2.3.2,5.2.2,8.5v18.1h8.1v-15.4c0-.7.1-1.4.3-2.1.5-1.4,1.7-3,3.9-3,2.6,0,3.8,2.3,3.8,5.7v14.9h8.1v-15.6c0-.7.1-1.5.3-2.1.5-1.6,1.9-2.9,3.8-2.9,2.7,0,3.9,2.2,3.9,6.1v14.5h.1Zm23-23.8h8.2v-2.9h-19.8v2.9h8.1v23.8h3.5V8.8h0Zm20.3-6.8c0-1.1-.8-2-1.9-2s-2,.9-2,2,.8,2,1.9,2c1.2,0,2-.9,2-2m7.3,0c0-1.1-.8-2-1.9-2s-1.9.9-1.9,2,.8,2,1.9,2c1.2,0,1.9-.9,1.9-2m4.2,19.5V5.9h-3.5v15.8c0,5.9-2.5,8.5-6.5,8.5-3.6,0-6.2-2.5-6.2-8.5V5.9h-3.5v15.7c0,8.3,4.1,11.4,9.6,11.4,5.8,0,10.1-3.3,10.1-11.5m20.5,3.4c0,3.9-3.3,5.2-6.9,5.2-1.2,0-2.2,0-2.9-.2v-10.1h2.9c3.8,0,6.9,1.5,6.9,5.1m-6.6-7.7h-3.1v-8.6c.6-.1,1.5-.2,3.1-.2,3.5,0,5.9,1.2,5.9,4.4-.1,2.5-2.3,4.4-5.9,4.4m4.7,1.1h0c2.8-1.1,4.5-3.4,4.5-6,0-2.1-.8-3.7-2.2-4.7-1.7-1.3-3.9-1.9-7.3-1.9-2.4,0-4.8.2-6.3.6v26.3c1.2.2,3,.3,5.4.3,4.4,0,7.4-.8,9.2-2.5,1.3-1.3,2.3-3.1,2.3-5.4,0-4-3-6.1-5.6-6.7m11.9,14.3h3.5V5.9h-3.5v26.7Zm29,0h3.5V5.9h-3.2v11.2c0,4.2.1,7.4.4,11h-.1c-1.3-2.7-2.8-5.6-4.8-8.7l-8.6-13.5h-3.8v26.7h3.3v-11.4c0-4.4-.1-7.7-.3-11h.1c1.3,2.9,3.1,5.9,5,8.9l8.5,13.5Zm22.1.3c3.6,0,6.7-.9,8.2-1.5v-12.8h-8.8v2.8h5.4v8c-.8.4-2.3.7-4.6.7-6.2,0-10.3-4-10.3-10.8s4.2-10.7,10.7-10.7c2.7,0,4.5.5,5.9,1.2l.8-2.8c-1.2-.6-3.6-1.2-6.7-1.2-9,0-14.4,5.8-14.5,13.8,0,4.2,1.4,7.7,3.7,10,2.8,2.2,6.2,3.3,10.2,3.3m14.8-.3h15v-2.9h-11.5v-9.6h10.4v-2.9h-10.4v-8.4h11v-2.9h-14.4v26.7h-.1Zm40.5,0V5.9h-3.3v11.2c0,4.2.1,7.4.4,11h-.1c-1.3-2.7-2.8-5.6-4.8-8.7l-8.6-13.5h-3.8v26.7h3.2v-11.4c0-4.4-.1-7.7-.3-11h.1c1.3,2.9,3.1,5.9,5,8.9l8.5,13.6,3.7-.1h0Z"></path></svg>
