<?xml version="1.0" encoding="UTF-8"?><svg id="a" xmlns="http://www.w3.org/2000/svg" width="176.39mm" height="62.44mm" viewBox="0 0 500 177"><defs><style>.b{fill:#fff;stroke-width:0px;}</style></defs><rect class="b" x="303.2" y="151.2" width="4.6" height="25.2"/><path class="b" d="m269.7,156.2h-.2l-.2-5h-4c.2,2.3.2,4.9.2,7.9v17.4h4.5v-13.4c0-.8.1-1.5.2-2.1.6-3.4,2.9-5.9,6.2-5.9.6,0,1.1.1,1.6.2v-4.3c-.4-.1-.8-.2-1.3-.2-3.1-.1-5.8,2-7,5.4Z"/><path class="b" d="m290.7,161.8c-3.3-1.3-4.8-2.2-4.8-4.3,0-1.9,1.5-3.4,4.2-3.4,2.3,0,4.2.8,5.2,1.5l1.1-3.3c-1.4-.8-3.6-1.6-6.2-1.6-5.4,0-8.7,3.3-8.7,7.4,0,3,2.1,5.5,6.7,7.1,3.4,1.3,4.7,2.4,4.7,4.6s-1.6,3.8-4.9,3.8c-2.3,0-4.7-.9-6-1.8l-1.1,3.5c1.8,1,4.3,1.7,7.1,1.7,6,0,9.4-3.1,9.4-7.6,0-3.7-2.3-5.9-6.7-7.6Z"/><path class="b" d="m305.5,141.3c-1.7,0-2.9,1.3-2.9,2.9s1.1,2.8,2.8,2.8c1.8,0,3-1.3,2.9-2.8,0-1.7-1-2.9-2.8-2.9Z"/><path class="b" d="m225.9,165.4c-.8,2.3-1.6,4.4-2.1,6.5h-.2c-.5-2.1-1.2-4.2-2-6.5l-5-14.2h-4.9l9.6,25.2h4.4l9.9-25.2h-4.8l-4.9,14.2Z"/><path class="b" d="m161.5,162.1c0,7.8-3.3,11.2-8.6,11.2-4.7,0-8.2-3.3-8.2-11.2v-20.8h-4.6v20.7c0,10.9,5.4,15,12.6,15,7.6,0,13.3-4.4,13.3-15.2v-20.5h-4.6v20.8h.1Z"/><path class="b" d="m249.5,150.7c-7.4,0-11.8,6-11.8,13.6s4.6,12.7,12.4,12.7c4,0,6.8-.8,8.4-1.6l-.8-3.3c-1.7.7-3.7,1.3-7,1.3-4.6,0-8.5-2.6-8.7-8.8h17.7c.1-.5.2-1.2.2-2.1,0-4.6-2.2-11.8-10.4-11.8Zm-7.5,10.7c.4-3.2,2.4-7.5,7-7.5,5.2,0,6.4,4.5,6.4,7.5h-13.4Z"/><path class="b" d="m186.3,150.7c-4.2,0-7.1,2.3-8.3,4.7h-.1l-.3-4.2h-4.1c.1,2.1.2,4.2.2,6.8v18.5h4.6v-15.2c0-.8.1-1.6.3-2.1.8-2.6,3.1-4.7,6.2-4.7,4.3,0,5.8,3.4,5.8,7.5v14.5h4.6v-15.1c0-8.7-5.4-10.7-8.9-10.7Z"/><path class="b" d="m321,144l-4.5,1.2v6h-3.9v3.5h3.9v13.8c0,3,.5,5.2,1.8,6.6,1.1,1.2,2.8,1.9,4.9,1.9,1.8,0,3.2-.3,4.1-.6l-.2-3.4c-.6.2-1.5.3-2.7.3-2.6,0-3.4-1.8-3.4-4.9v-13.6h6.6v-3.5h-6.6v-7.3Z"/><rect class="b" x="202.7" y="151.2" width="4.6" height="25.2"/><path class="b" d="m205,141.3c-1.7,0-2.9,1.3-2.9,2.9s1.1,2.8,2.8,2.8c1.8,0,3-1.3,2.9-2.8,0-1.7-1.1-2.9-2.8-2.9Z"/><path class="b" d="m403.6,161.8c-3.3-1.3-4.8-2.2-4.8-4.3,0-1.9,1.5-3.4,4.2-3.4,2.3,0,4.2.8,5.2,1.5l1.1-3.3c-1.4-.8-3.6-1.6-6.2-1.6-5.4,0-8.7,3.3-8.7,7.4,0,3,2.1,5.5,6.7,7.1,3.4,1.3,4.7,2.4,4.7,4.6s-1.6,3.8-4.9,3.8c-2.3,0-4.7-.9-6-1.8l-1.1,3.5c1.8,1,4.3,1.7,7.1,1.7,6,0,9.4-3.1,9.4-7.6-.1-3.7-2.3-5.9-6.7-7.6Z"/><path class="b" d="m383,161.8c-3.3-1.3-4.8-2.2-4.8-4.3,0-1.9,1.5-3.4,4.2-3.4,2.4,0,4.2.8,5.2,1.5l1.1-3.3c-1.4-.8-3.6-1.6-6.2-1.6-5.4,0-8.7,3.3-8.7,7.4,0,3,2.1,5.5,6.7,7.1,3.4,1.3,4.7,2.4,4.7,4.6s-1.6,3.8-4.9,3.8c-2.3,0-4.7-.9-6-1.8l-1.1,3.5c1.8,1,4.3,1.7,7.1,1.7,6,0,9.4-3.1,9.4-7.6-.1-3.7-2.3-5.9-6.7-7.6Z"/><path class="b" d="m480.3,139.5h-4.6v15h-.1c-1.1-2-3.8-3.8-7.6-3.8-6.2,0-11.4,5.2-11.3,13.5,0,7.7,4.7,12.8,10.8,12.8,4.1,0,7.2-2.1,8.6-4.9h.1l.2,4.4h4.1c-.2-1.7-.2-4.3-.2-6.5v-30.5Zm-4.6,26.4c0,.7-.1,1.4-.2,2-.8,3.4-3.7,5.5-6.7,5.5-5,0-7.5-4.2-7.5-9.3,0-5.6,2.8-9.8,7.6-9.8,3.4,0,5.9,2.4,6.6,5.3.2.6.2,1.4.2,1.9v4.4Z"/><path class="b" d="m451.1,161c0-5.1-1.9-10.3-9.6-10.3-3.2,0-6.2.9-8.3,2.2l1,3c1.8-1.1,4.2-1.9,6.6-1.9,5.2,0,5.7,3.8,5.7,5.8v.5c-9.8-.1-15.2,3.3-15.2,9.4,0,3.7,2.6,7.2,7.7,7.2,3.6,0,6.3-1.8,7.7-3.7h.2l.4,3.2h4.2c-.3-1.7-.4-3.9-.4-6v-9.4h0Zm-4.4,7c0,.5-.1,1-.3,1.5-.7,2.1-2.8,4.2-6.1,4.2-2.3,0-4.3-1.4-4.3-4.4,0-4.9,5.7-5.8,10.7-5.7v4.4h0Z"/><path class="b" d="m363.1,144l-4.5,1.2v6h-3.9v3.5h3.9v13.8c0,3,.5,5.2,1.8,6.6,1.1,1.2,2.8,1.9,4.9,1.9,1.8,0,3.2-.3,4.1-.6l-.2-3.4c-.6.2-1.5.3-2.7.3-2.6,0-3.4-1.8-3.4-4.9v-13.6h6.6v-3.5h-6.6v-7.3h0Z"/><path class="b" d="m421.7,144l-4.5,1.2v6h-3.9v3.5h3.9v13.8c0,3,.5,5.2,1.8,6.6,1.1,1.2,2.8,1.9,5,1.9,1.8,0,3.2-.3,4.1-.6l-.2-3.4c-.6.2-1.5.3-2.7.3-2.6,0-3.4-1.8-3.4-4.9v-13.6h6.6v-3.5h-6.6v-7.3h-.1Z"/><path class="b" d="m334,144.1c0,1.4,1.1,2.7,2.7,2.7,1.5,0,2.5-1.2,2.5-2.7s-1.1-2.7-2.5-2.7-2.7,1.2-2.7,2.7Z"/><path class="b" d="m350.4,161c0-5.1-1.9-10.3-9.6-10.3-3.2,0-6.2.9-8.3,2.2l1,3c1.8-1.1,4.2-1.9,6.6-1.9,5.2,0,5.7,3.8,5.7,5.8v.5c-9.8-.1-15.2,3.3-15.2,9.4,0,3.7,2.6,7.2,7.7,7.2,3.6,0,6.3-1.8,7.7-3.7h.2l.4,3.2h4.2c-.3-1.7-.4-3.9-.4-6v-9.4h0Zm-4.4,7c0,.5-.1,1-.3,1.5-.7,2.1-2.8,4.2-6.1,4.2-2.3,0-4.3-1.4-4.3-4.4,0-4.9,5.7-5.8,10.7-5.7v4.4h0Z"/><path class="b" d="m500,154.7v-3.5h-6.6v-7.2l-4.5,1.2v6h-3.9v3.5h3.9v13.8c0,3,.5,5.2,1.8,6.6,1.1,1.2,2.8,1.9,5,1.9,1.8,0,3.2-.3,4.1-.6l-.2-3.4c-.6.2-1.5.3-2.7.3-2.6,0-3.5-1.8-3.5-4.9v-13.6h6.6v-.1Z"/><path class="b" d="m343.7,144.1c0,1.4,1,2.7,2.6,2.7,1.5,0,2.6-1.2,2.6-2.7s-1.1-2.7-2.6-2.7-2.6,1.2-2.6,2.7Z"/><polygon class="b" points="154 109.8 165 109.8 165 59 182.2 59 182.2 49.9 137 49.9 137 59 154 59 154 109.8"/><path class="b" d="m195.2,59.8c3.1,0,5.3-2.5,5.3-5.4,0-3.2-2.3-5.5-5.2-5.5-3.2,0-5.6,2.4-5.6,5.5,0,2.9,2.3,5.4,5.5,5.4Z"/><path class="b" d="m212.9,59.8c3.1,0,5.3-2.5,5.3-5.4,0-3.2-2.2-5.5-5.3-5.5s-5.4,2.4-5.4,5.5c0,2.9,2.2,5.4,5.4,5.4Z"/><path class="b" d="m244.5,103.3h.2c3.1,5.3,8.1,7.5,13.7,7.5,9.8,0,19.7-7.7,19.7-23.3.1-13.2-7.5-22-18.1-22-6.5,0-11.2,2.8-13.9,6.9h-.2v-25.7h-10.9v51c0,4.4-.2,9.3-.4,12.2h9.3l.6-6.6Zm1.4-18.4c0-1.1.2-2,.4-2.8,1.2-4.8,5.2-8,9.7-8,7.3,0,10.9,6.2,10.9,13.9,0,8.7-4.2,14.2-11,14.2-4.7,0-8.5-3.3-9.7-7.6-.2-.8-.3-1.7-.3-2.6v-7.1Z"/><path class="b" d="m485.8,109.8h11v-25.7c0-13.7-7.8-18.6-15.4-18.6-7.2,0-11.9,4.1-13.8,7.5h-.3l-.5-6.5h-9.6c.3,3.7.4,7.9.4,12.9v30.4h11v-25.4c0-1.2.1-2.6.4-3.6,1.1-3.3,4.2-6.4,8.5-6.4,6,0,8.3,4.7,8.3,10.9v24.5Z"/><path class="b" d="m338.1,85.4v24.5h10.9v-25.8c0-13.7-7.8-18.6-15.4-18.6-7.2,0-11.9,4.1-13.8,7.5h-.3l-.5-6.5h-9.6c.3,3.7.4,7.9.4,12.9v30.4h11v-25.4c0-1.2.1-2.6.4-3.6,1.2-3.3,4.2-6.4,8.5-6.4,6,0,8.4,4.7,8.4,11Z"/><path class="b" d="m399.9,79c0-6,.2-9.5.4-12.5h-9.5l-.4,5.8h-.2c-2-3.6-6-6.8-12.5-6.8-10.4,0-19.6,8.6-19.6,22.9,0,12.3,7.7,21.2,18.4,21.2,5.7,0,10.1-2.6,12.6-6.4h.2v3.7c0,9.3-5.3,13.1-12.5,13.1-5.2,0-9.9-1.7-12.6-3.3l-2.4,8.3c3.7,2.3,9.6,3.5,15.1,3.5,6,0,12.2-1.2,16.7-5.2,4.5-4.1,6.4-10.6,6.4-19.7v-24.6h-.1Zm-11,11.9c0,1.2-.2,2.8-.4,3.9-1.2,3.9-4.8,6.6-8.9,6.6-6.8,0-10.6-6-10.6-13.3,0-8.8,4.5-14.1,10.7-14.1,4.6,0,7.7,3,8.9,7,.3.9.3,2,.3,2.9v7Z"/><path class="b" d="m292.5,48.5c-3.6,0-6.1,2.6-6.1,6s2.4,5.9,6,5.9c3.8,0,6.2-2.6,6.2-5.9,0-3.5-2.4-6-6.1-6Z"/><path class="b" d="m213.4,103.2l.5,6.6h9.6c-.2-3.6-.4-7.8-.4-13v-30.3h-10.9v26.1c0,1.2-.3,2.4-.6,3.4-1.2,2.8-4,5.9-8.4,5.9-5.8,0-8.1-4.6-8.1-11.8v-23.6h-10.9v25.4c0,14.1,7.2,18.9,15.1,18.9s12-4.4,13.9-7.6c0,0,.2,0,.2,0Z"/><rect class="b" x="287" y="66.5" width="11" height="43.3"/><path class="b" d="m444.7,100.5c-3.3,1.2-6.9,2-12,2-6.9,0-13.1-3.4-13.3-11.2h29c.2-1,.4-2.6.4-4.6,0-9.5-4.6-21.1-18.7-21.1s-21.2,11.3-21.2,23.3c0,13.3,8.3,21.9,22.3,21.9,6.2,0,11.4-1.2,15.1-2.7l-1.6-7.6Zm-15.3-27.5c7.3,0,9.1,6.6,9,10.6h-19c.4-4.5,3.2-10.6,10-10.6Z"/><path class="b" d="m72.7,152.5c-12.6,0-16.4-7.4-16.4-23.5V0h-16.5s-4.3,30.2-19.1,42.3C9.4,51.6,0,51.7,0,51.7v20.9h17.7v54.6c0,18.8,3.8,30,11.5,37.9,6.5,6.8,15.6,11.5,29,11.5,11.7,0,21.6-1.4,27-3.6l-.2-21.6c-3.1.5-7.1,1.1-12.3,1.1Z"/><rect class="b" x="67.4" y="49.8" width="22.8" height="22.8"/></svg>